<svg id="contact" xmlns="http://www.w3.org/2000/svg" width="28.951" height="28.951" viewBox="0 0 28.951 28.951">
  <path id="Path_30425" data-name="Path 30425" d="M178.366,177.248l-2.019-2.019-1.388,1.388-.573-.36a16.091,16.091,0,0,1-4.882-4.9l-.357-.572,1.378-1.378-2.019-2.019-1.047,1.047c-.727.818.09,3.776,3.086,6.772a13.084,13.084,0,0,0,4.337,2.993c1.146.438,2.068.461,2.466.063Z" transform="translate(-157.757 -157.925)" fill="#fff"/>
  <path id="Path_30426" data-name="Path 30426" d="M24.711,4.24A14.476,14.476,0,0,0,4.24,24.711,14.476,14.476,0,0,0,24.711,4.24ZM22.083,22.323H18.722v-.007h-.015a6.209,6.209,0,0,1-2.185-.456,14.793,14.793,0,0,1-4.931-3.378A14.874,14.874,0,0,1,8.233,13.6c-.706-1.815-.623-3.326.234-4.254l.023-.024,2.261-2.261,4.418,4.418-1.611,1.611a14.7,14.7,0,0,0,3.416,3.427l1.617-1.617,4.418,4.418-1.3,1.3h.378a2.385,2.385,0,0,0,2.382-2.382v-3.77A9.978,9.978,0,1,0,17.509,24l.515,1.616a11.688,11.688,0,1,1,8.138-11.137v3.77A4.083,4.083,0,0,1,22.083,22.323Z" fill="#fff"/>
</svg>
