<svg id="email" xmlns="http://www.w3.org/2000/svg" width="50.472" height="37.855" viewBox="0 0 50.472 37.855">
  <path id="Path_18790" data-name="Path 18790" d="M288.9,213.333a11.567,11.567,0,1,0,5.784,21.585,1.052,1.052,0,0,0-1.054-1.82,9.465,9.465,0,1,1,4.733-8.2v1.052a2.1,2.1,0,0,1-4.206,0v-4.206a1.048,1.048,0,0,0-1.777-.756,5.256,5.256,0,1,0,.444,7.374,4.2,4.2,0,0,0,7.642-2.412V224.9A11.58,11.58,0,0,0,288.9,213.333Zm0,14.722a3.155,3.155,0,1,1,3.155-3.155,3.155,3.155,0,0,1-3.155,3.155Z" transform="translate(-249.994 -198.612)" fill="#fff"/>
  <path id="Path_18791" data-name="Path 18791" d="M14.151,66.434,31.474,80.527a1,1,0,0,0,.186.121,1.585,1.585,0,0,0,.728.178,1.7,1.7,0,0,0,.924-.306L50.621,66.435a1.051,1.051,0,0,0-.063-1.678,4.178,4.178,0,0,0-2.4-.757H16.613a4.174,4.174,0,0,0-2.4.756,1.051,1.051,0,0,0-.063,1.678Z" transform="translate(-12.407 -64)" fill="#fff"/>
  <path id="Path_18792" data-name="Path 18792" d="M25.237,134.972a13.686,13.686,0,0,1,13.67-13.67,1.051,1.051,0,0,0,1.052-1.052v-5.628a1.051,1.051,0,0,0-1.715-.815L22.11,126.935l-.185.122a3.671,3.671,0,0,1-4.072-.121L1.715,113.805A1.051,1.051,0,0,0,0,114.621v19.3a4.21,4.21,0,0,0,4.206,4.206H24.353a1.051,1.051,0,0,0,1.041-1.2,13.648,13.648,0,0,1-.157-1.955Z" transform="translate(0 -108.683)" fill="#fff"/>
</svg>
