<svg xmlns="http://www.w3.org/2000/svg" width="28.003" height="28" viewBox="0 0 28.003 28">
  <g id="enquire" transform="translate(0 0)">
    <g id="Group_18" data-name="Group 18">
      <path id="Path_11" data-name="Path 11" d="M27.133,16.031l-3.8,3.375a.5.5,0,0,1-.33.125.489.489,0,0,1-.205-.045.5.5,0,0,1-.295-.455v-3H15a1.5,1.5,0,0,1-1.5-1.5V4.031a1.5,1.5,0,0,1,1.5-1.5h6.3a14,14,0,1,0,7.665,13.419,1.564,1.564,0,0,1-.465.08h-1.37Zm-3.655,7.495L21,26a3.489,3.489,0,0,1-2.465,1.03,3.42,3.42,0,0,1-1.085-.175c-.25-.08-.495-.17-.745-.26a22.35,22.35,0,0,1-8.08-5.19,22.351,22.351,0,0,1-5.19-8.08c-.09-.25-.18-.495-.26-.745a3.458,3.458,0,0,1,.855-3.55L6.51,6.556a1.5,1.5,0,0,1,2.12,0l3.535,3.535a1.5,1.5,0,0,1,0,2.12l-2.5,2.5a17.393,17.393,0,0,0,5.66,5.66l2.5-2.5a1.5,1.5,0,0,1,2.12,0l3.535,3.535A1.5,1.5,0,0,1,23.479,23.525Z" transform="translate(-1 -1.031)" fill="#fff"/>
      <path id="Path_12" data-name="Path 12" d="M67.8,165.781a.493.493,0,0,1-.6.08,18.432,18.432,0,0,1-6.545-6.545.5.5,0,0,1,.08-.6l.655-.655-4.245-4.24-.35.35a2.489,2.489,0,0,0-.615,2.525c.075.24.16.48.25.715a21.571,21.571,0,0,0,12.679,12.679c.235.09.475.175.715.25a2.488,2.488,0,0,0,2.525-.615l.35-.35-4.24-4.245Z" transform="translate(-53.047 -145.462)" fill="#fff"/>
      <path id="Path_13" data-name="Path 13" d="M297.794,319.335a.5.5,0,0,0-.7,0l-1.415,1.415,4.245,4.245,1.415-1.415a.514.514,0,0,0,0-.71Z" transform="translate(-279.56 -301.791)" fill="#fff"/>
      <path id="Path_14" data-name="Path 14" d="M94.431,116.7a.5.5,0,0,0,0-.7l-3.535-3.54a.507.507,0,0,0-.71,0l-1.415,1.415,4.245,4.245Z" transform="translate(-83.971 -106.224)" fill="#fff"/>
      <circle id="Ellipse_5" data-name="Ellipse 5" cx="0.75" cy="0.75" r="0.75" transform="translate(15.504 7.5)" fill="#fff"/>
      <circle id="Ellipse_6" data-name="Ellipse 6" cx="0.75" cy="0.75" r="0.75" transform="translate(24.504 7.5)" fill="#fff"/>
      <circle id="Ellipse_7" data-name="Ellipse 7" cx="0.75" cy="0.75" r="0.75" transform="translate(20.004 7.5)" fill="#fff"/>
      <path id="Path_15" data-name="Path 15" d="M261.947,46.755h-13.5a.5.5,0,0,0-.5.5v10.5a.5.5,0,0,0,.5.5h8a.5.5,0,0,1,.5.5v2.385l3.11-2.76c.015-.015.04-.02.06-.035a.587.587,0,0,1,.1-.055.705.705,0,0,1,.1-.02.4.4,0,0,1,.075-.015h1.56a.5.5,0,0,0,.5-.5v-10.5A.5.5,0,0,0,261.947,46.755Zm-11.249,7.5a1.75,1.75,0,1,1,1.75-1.75A1.75,1.75,0,0,1,250.7,54.255Zm4.5,0a1.75,1.75,0,1,1,1.75-1.75A1.75,1.75,0,0,1,255.2,54.255Zm4.5,0a1.75,1.75,0,1,1,1.75-1.75A1.75,1.75,0,0,1,259.7,54.255Z" transform="translate(-234.444 -44.255)" fill="#fff"/>
    </g>
  </g>
</svg>
