<svg xmlns="http://www.w3.org/2000/svg" width="449.602" height="448" viewBox="0 0 449.602 448">
  <g id="enquiry" transform="translate(0 -0.301)">
    <path id="Path_31008" data-name="Path 31008" d="M440,.3H288a7.557,7.557,0,0,0-8,8V81.9c0,6.4-2.4,12.8-7.2,16.8l-13.6,13.6H440a7.557,7.557,0,0,0,8-8V8.3a7.557,7.557,0,0,0-8-8Zm-40,96H296v-16H400Zm32-32H296v-16H432Zm0-32H296v-16H432Zm0,0" fill="#fff"/>
    <path id="Path_31009" data-name="Path 31009" d="M129.6,69.9a35.682,35.682,0,0,0,31.2,2.4l28.8-12c-19.2-33.6-62.4-45.6-96.8-26.4C75.2,44.3,62.4,61.1,58.4,81.1v.8l20-11.2c16-10.4,35.2-9.6,51.2-.8Zm0,0" fill="#fff"/>
    <path id="Path_31010" data-name="Path 31010" d="M56,272.3H72v96h48v-128L95.2,258.7,60,223.5l-16.8,5.6c-16,5.6-27.2,20.8-27.2,37.6V368.3H56Zm0,0" fill="#fff"/>
    <path id="Path_31011" data-name="Path 31011" d="M71.2,160.3H96c0-2.4-1.6-4.8-3.2-6.4l-9.6-6.4a25.021,25.021,0,0,1-10.4-20v-36L55.2,101.9,48,131.5a25.03,25.03,0,0,0,18.4,28.8Zm0,0" fill="#fff"/>
    <path id="Path_31012" data-name="Path 31012" d="M184,127.5a25.021,25.021,0,0,1-10.4,20l-9.6,6.4c-2.4,1.6-4,4-4,6.4h24.8a23.574,23.574,0,0,0,24-24,10.141,10.141,0,0,0-.8-4.8L197.6,80.3c-.8-1.6-.8-4-1.6-5.6l-12,4.8Zm0,0" fill="#fff"/>
    <path id="Path_31013" data-name="Path 31013" d="M144,161.1a25.015,25.015,0,0,1,10.4-20l9.6-6.4a7.275,7.275,0,0,0,3.2-6.4V87.5h-.8c-15.2,6.4-32,5.6-45.6-3.2-10.4-6.4-22.4-6.4-33.6-.8v44.8c0,2.4,1.6,4.8,3.2,6.4l9.6,6.4a25.015,25.015,0,0,1,10.4,20v31.2h32V161.1Zm0,0" fill="#fff"/>
    <path id="Path_31014" data-name="Path 31014" d="M76.8,217.9l20,20L120,220.3v-12H105.6Zm0,0" fill="#fff"/>
    <path id="Path_31015" data-name="Path 31015" d="M179.2,217.9l-28.8-9.6H136v12l23.2,17.6Zm0,0" fill="#fff"/>
    <path id="Path_31016" data-name="Path 31016" d="M240,321.1V266.7c0-17.6-11.2-32.8-27.2-37.6L196,223.5l-35.2,35.2L136,240.3v128h48v-64h16v64h16v-.8c0-18.4,8.8-36,24-46.4Zm-40-32.8H152v-16h48Zm0,0" fill="#fff"/>
    <path id="Path_31017" data-name="Path 31017" d="M366.4,287.5A52.032,52.032,0,0,0,392,242.7V160.3H312a23.57,23.57,0,0,0-24,24v58.4a51.9,51.9,0,0,0,52,52A50.335,50.335,0,0,0,366.4,287.5Zm0,0" fill="#fff"/>
    <path id="Path_31018" data-name="Path 31018" d="M424.8,330.7,368,305.1c-17.6,8-37.6,8-54.4,0l-56.8,25.6c-14.4,6.4-23.2,20.8-23.2,36.8v80.8h216V367.5c-1.6-16-10.4-30.4-24.8-36.8Zm0,0" fill="#fff"/>
    <path id="Path_31019" data-name="Path 31019" d="M0,448.3H216v-64H0Zm88-40h80v16H88Zm0,0" fill="#fff"/>
  </g>
</svg>
