<svg xmlns="http://www.w3.org/2000/svg" width="24.042" height="24.046" viewBox="0 0 24.042 24.046">
  <g id="file" transform="translate(-0.038)">
    <g id="Group_3" data-name="Group 3" transform="translate(19.903 8.411)">
      <g id="Group_2" data-name="Group 2">
        <path id="Path_2" data-name="Path 2" d="M426.444,179.593a2.115,2.115,0,0,0-2.975.258l-.457.54,3.238,2.717.436-.539A2.108,2.108,0,0,0,426.444,179.593Z" transform="translate(-423.012 -179.099)" fill="#fff"/>
      </g>
    </g>
    <g id="Group_5" data-name="Group 5" transform="translate(12.839 16.463)">
      <g id="Group_4" data-name="Group 4">
        <path id="Path_3" data-name="Path 3" d="M273.968,350.534l-.241.285a2.13,2.13,0,0,0-.435.867l-.655,2.741a.7.7,0,0,0,.965.81l2.586-1.121a2.13,2.13,0,0,0,.777-.579l.242-.286Z" transform="translate(-272.617 -350.534)" fill="#fff"/>
      </g>
    </g>
    <g id="Group_7" data-name="Group 7" transform="translate(15.099 10.779)">
      <g id="Group_6" data-name="Group 6">
        <path id="Path_4" data-name="Path 4" d="M324.627,229.517l-3.894,4.608,3.238,2.717,3.894-4.608Z" transform="translate(-320.733 -229.517)" fill="#fff"/>
      </g>
    </g>
    <g id="Group_9" data-name="Group 9" transform="translate(14.127 0.108)">
      <g id="Group_8" data-name="Group 8">
        <path id="Path_5" data-name="Path 5" d="M303.607,5.31l-2.676-2.543a2.079,2.079,0,0,0-.892-.473V6.413h4.182A2.122,2.122,0,0,0,303.607,5.31Z" transform="translate(-300.039 -2.294)" fill="#fff"/>
      </g>
    </g>
    <g id="Group_11" data-name="Group 11" transform="translate(0.038)">
      <g id="Group_10" data-name="Group 10" transform="translate(0)">
        <path id="Path_6" data-name="Path 6" d="M12.143,17.287a3.551,3.551,0,0,1,.725-1.443l5.486-6.491V5.636H13.423a.7.7,0,0,1-.7-.7V0H2.151A2.116,2.116,0,0,0,.038,2.113V21.932a2.116,2.116,0,0,0,2.113,2.113H16.241a2.116,2.116,0,0,0,2.113-2.113V20.267l-.091.108a3.537,3.537,0,0,1-1.29.961l-2.588,1.122a2.114,2.114,0,0,1-2.9-2.431ZM3.56,4.227H10.6a.7.7,0,0,1,0,1.409H3.56a.7.7,0,1,1,0-1.409Zm0,4.274H14.832a.7.7,0,0,1,0,1.409H3.56a.7.7,0,1,1,0-1.409ZM9.2,18.363H3.56a.7.7,0,0,1,0-1.409H9.2a.7.7,0,1,1,0,1.409ZM3.56,14.136a.7.7,0,1,1,0-1.409h8.454a.7.7,0,1,1,0,1.409Z" transform="translate(-0.038)" fill="#fff"/>
      </g>
    </g>
  </g>
</svg>
