<svg xmlns="http://www.w3.org/2000/svg" width="113.65" height="107.229" viewBox="0 0 113.65 107.229">
  <g id="grow" transform="translate(-186 -1025.5)">
    <path id="Path_249" data-name="Path 249" d="M35.691,0C43.8,0,54.208,10.715,63.3,26.428s13.453,32.594,8.761,36.426a60.1,60.1,0,0,1-36.371,12.51c-18.185,0-32.955-8.678-36.371-12.51S-2.393,42.142,6.7,26.428,27.584,0,35.691,0Z" transform="translate(247.346 1027.135) rotate(45)" fill="#ff4934" opacity="0.14"/>
    <g id="surface1" transform="translate(186 1043.5)">
      <path id="Path_31094" data-name="Path 31094" d="M98.776,35.94a1.269,1.269,0,0,0,.5-.1c11.834-5.058,28.587-13.195,41.19-23.233a66.128,66.128,0,0,0,8.177-7.552l.233,2.558a1.274,1.274,0,0,0,1.267,1.158,1.169,1.169,0,0,0,.117-.005,1.273,1.273,0,0,0,1.153-1.384l-.509-5.6A1.272,1.272,0,0,0,150.312.7a1.29,1.29,0,0,0-.182-.094L150.111.6c-.026-.011-.052-.02-.079-.029S150,.557,149.98.552l-.047-.013c-.029-.007-.059-.014-.089-.019h-.011a1.243,1.243,0,0,0-.326-.013l-5.72.521a1.273,1.273,0,0,0,.231,2.536l2.758-.251a63.931,63.931,0,0,1-8.084,7.449c-12.367,9.8-28.805,17.772-40.417,22.735a1.273,1.273,0,0,0,.5,2.444Zm0,0" transform="translate(-80.945)" fill="#0d0d0d"/>
      <path id="Path_31095" data-name="Path 31095" d="M33.51,382.383H29.774a1.274,1.274,0,1,0,0,2.547H33.51a1.274,1.274,0,1,0,0-2.547Zm0,0" transform="translate(-23.661 -317.037)" fill="#0d0d0d"/>
      <path id="Path_31096" data-name="Path 31096" d="M86.058,126.586a5.126,5.126,0,0,0-7.079-1.369l-4.766,3.19V92.159a1.79,1.79,0,0,0-1.788-1.788H66.792A1.79,1.79,0,0,0,65,92.159v9.1a1.274,1.274,0,1,0,2.547,0V92.918h4.115v37.193l-4.115,2.754V107.187a1.274,1.274,0,0,0-2.547,0V134.57l-1.916,1.283-2.731-.153V98.988A1.79,1.79,0,0,0,58.569,97.2H52.936a1.79,1.79,0,0,0-1.788,1.788v28.96l-4.647-.535V107.106a1.79,1.79,0,0,0-1.788-1.788H39.079a1.79,1.79,0,0,0-1.788,1.788v18.946a21.8,21.8,0,0,1-4.647-1.95v-7.75a1.79,1.79,0,0,0-1.788-1.788H25.222a1.79,1.79,0,0,0-1.788,1.788v4.459a24.461,24.461,0,0,0-3.509-.256H16.137v-.579a2.67,2.67,0,0,0-2.667-2.667H1.586A1.588,1.588,0,0,0,0,118.9v27.85a1.588,1.588,0,0,0,1.586,1.586H13.47a2.669,2.669,0,0,0,2.666-2.657l18.7,7.083c.034.013.07.025.105.034a8.2,8.2,0,0,0,2.233.318,7.473,7.473,0,0,0,1.17-.092l24.9-3.59.019,0a12.29,12.29,0,0,0,5.829-2.611l.014-.011L85.2,133.31l.027-.023A5.127,5.127,0,0,0,86.058,126.586ZM53.695,99.748H57.81V130.6a7.439,7.439,0,0,0-4.115-2.333Zm-13.857,8.118h4.115V127.12l-3.642-.419c-.158-.022-.316-.047-.473-.073Zm-13.856,9.248H30.1v5.653a24.634,24.634,0,0,0-4.115-1.446Zm57.564,14.259L67.483,144.847a9.754,9.754,0,0,1-4.6,2.063L38,150.494l-.036.006a5.392,5.392,0,0,1-2.278-.145l-19.552-7.4v-10.5a1.274,1.274,0,0,0-2.547,0v13.212a.12.12,0,0,1-.12.12H2.547V119.857H13.47a.12.12,0,0,1,.12.12v6.55a1.274,1.274,0,1,0,2.547,0V123.1h3.789a22,22,0,0,1,10.829,2.857l.012.007c.085.048.171.095.255.144a24.411,24.411,0,0,0,8.947,3.114l.033,0,12.955,1.492a4.9,4.9,0,0,1,4.185,4.376l.059.59L34.314,137.1l-.04,0a2.723,2.723,0,0,1-1.855-.971,1.273,1.273,0,1,0-1.955,1.632,5.251,5.251,0,0,0,3.583,1.876c.059.005.119.009.168.011s.076,0,.113,0h.059l.034,0L58.6,138.152l4.767.268a1.269,1.269,0,0,0,.78-.214l2.84-1.9L80.4,127.332a2.567,2.567,0,0,1,3.147,4.039Zm0,0" transform="translate(0 -74.61)" fill="#0d0d0d"/>
    </g>
  </g>
</svg>
