<svg xmlns="http://www.w3.org/2000/svg" width="113.65" height="107.229" viewBox="0 0 113.65 107.229">
  <g id="Group_26" data-name="Group 26" transform="translate(-186 -1025.5)">
    <path id="Path_249" data-name="Path 249" d="M35.691,0C43.8,0,54.208,10.715,63.3,26.428s13.453,32.594,8.761,36.426a60.1,60.1,0,0,1-36.371,12.51c-18.185,0-32.955-8.678-36.371-12.51S-2.393,42.142,6.7,26.428,27.584,0,35.691,0Z" transform="translate(247.346 1027.135) rotate(45)" fill="#ff4934" opacity="0.14"/>
    <g id="cash-payment" transform="translate(186 1027.242)">
      <g id="Group_10085" data-name="Group 10085" transform="translate(0 16.758)">
        <path id="Path_31089" data-name="Path 31089" d="M226.3,110.386a1.223,1.223,0,0,0,1.223-1.223v-1.419c5.369-1.053,6.876-8.881,1.081-10.93-.355-.126-.718-.257-1.081-.394V90.637a3.725,3.725,0,0,1,1.5.72,1.223,1.223,0,0,0,1.649-1.805,6.315,6.315,0,0,0-3.15-1.4V86.968a1.223,1.223,0,1,0-2.445,0v1.275c-.181.04-.366.086-.554.143-3.709,1.117-4.641,6.135-1.976,8.226a11.81,11.81,0,0,0,2.529,1.448v7.332a5.023,5.023,0,0,1-2.671-1,1.223,1.223,0,1,0-1.339,2.046,7.346,7.346,0,0,0,4.01,1.4v1.322a1.222,1.222,0,0,0,1.223,1.223Zm-2.243-15.7c-1.063-.834-.674-3.268,1.02-3.908v4.56A7.341,7.341,0,0,1,224.053,94.687Zm3.731,4.432c3.162,1.118,2.395,5.133-.266,6.085v-6.18Z" transform="translate(-184.562 -74.499)" fill="#0d0d0d"/>
        <path id="Path_31090" data-name="Path 31090" d="M135.006,63.892a23.567,23.567,0,1,0-23.567-23.567A23.593,23.593,0,0,0,135.006,63.892Zm0-44.688a21.121,21.121,0,1,1-21.121,21.121A21.145,21.145,0,0,1,135.006,19.2Z" transform="translate(-93.272 -16.758)" fill="#0d0d0d"/>
        <path id="Path_31091" data-name="Path 31091" d="M163.628,120.883a17.831,17.831,0,0,0,10.889-3.668,1.223,1.223,0,1,0-1.481-1.946,15.405,15.405,0,0,1-9.408,3.169,15.564,15.564,0,0,1-15.547-15.547,15.4,15.4,0,0,1,3.175-9.417,1.223,1.223,0,0,0-1.945-1.483,17.831,17.831,0,0,0-3.676,10.9A18.012,18.012,0,0,0,163.628,120.883Z" transform="translate(-121.894 -79.324)" fill="#0d0d0d"/>
        <path id="Path_31092" data-name="Path 31092" d="M194.594,55.883a15.549,15.549,0,0,1,21.471,21.532,1.223,1.223,0,1,0,2.05,1.334,17.995,17.995,0,0,0-24.849-24.919,1.223,1.223,0,0,0,1.328,2.053Z" transform="translate(-161.291 -45.38)" fill="#0d0d0d"/>
        <path id="Path_31093" data-name="Path 31093" d="M82.572,283.554a5.182,5.182,0,0,0-7.087-1.429L63.623,288.04a23.019,23.019,0,0,1-8.238,2.342l.066-1.031c.144-2.212-2.071-6.329-6.484-6.954l-.031,0L35.62,280.86c-2.826-.4-4.2-1.341-6.831-2.877a25.14,25.14,0,0,0-12.682-3.437H12.549v-.706a3.516,3.516,0,0,0-3.512-3.512H3.512A3.516,3.516,0,0,0,0,273.841v28.031a3.516,3.516,0,0,0,3.512,3.512H9.037a3.516,3.516,0,0,0,3.512-3.512v-1.585l13.3,5.943.072.029a11.685,11.685,0,0,0,5.186.678l26.773-2.606a11.668,11.668,0,0,0,5.225-1.834c19.722-12.876,18.5-12.057,18.625-12.17a5.182,5.182,0,0,0,.841-6.773Zm-2.4,4.889-18.4,12.006a9.21,9.21,0,0,1-4.125,1.448L30.871,304.5a9.228,9.228,0,0,1-4.06-.522l-14.263-6.373v-2.3a1.223,1.223,0,0,0-2.445,0v6.559a1.068,1.068,0,0,1-1.066,1.066H3.512a1.068,1.068,0,0,1-1.066-1.066V273.841a1.068,1.068,0,0,1,1.066-1.066H9.037a1.068,1.068,0,0,1,1.066,1.066V289.6a1.223,1.223,0,0,0,2.445,0V276.992h3.557a22.694,22.694,0,0,1,11.447,3.1c2.746,1.606,4.426,2.72,7.739,3.189l.031,0,13.315,1.533A5.122,5.122,0,0,1,53,289.3l-.079,1.233-17.3,1.072a1.223,1.223,0,0,0,.075,2.443l.077,0,18.372-1.138a25.468,25.468,0,0,0,10.564-2.679c12.647-6.31,11.939-5.943,12.065-6.027a2.724,2.724,0,0,1,3.388,4.242Z" transform="translate(0 -228.991)" fill="#0d0d0d"/>
      </g>
    </g>
  </g>
</svg>
