<svg xmlns="http://www.w3.org/2000/svg" width="22.725" height="26" viewBox="0 0 22.725 26">
  <g id="information" transform="translate(-32.25)">
    <path id="Path_30400" data-name="Path 30400" d="M49.008,2.793A2.8,2.8,0,0,0,46.215,0H35.043A2.8,2.8,0,0,0,32.25,2.793v.762H49.008Z" transform="translate(0)" fill="#fff"/>
    <path id="Path_30401" data-name="Path 30401" d="M32.25,442.762a2.8,2.8,0,0,0,2.793,2.793H46.215a2.8,2.8,0,0,0,2.793-2.793V442H32.25Z" transform="translate(0 -419.555)" fill="#fff"/>
    <path id="Path_30402" data-name="Path 30402" d="M240.97,100a6.217,6.217,0,0,0-5.547,9.033l-.655,2.62a.635.635,0,0,0,.77.77l2.62-.655A6.22,6.22,0,1,0,240.97,100Zm0,2.92a.762.762,0,1,1-.762.762A.762.762,0,0,1,240.97,102.92Zm.762,6.043a.762.762,0,1,1-1.523,0v-3a.762.762,0,0,1,1.523,0Z" transform="translate(-192.216 -94.922)" fill="#fff"/>
    <path id="Path_30403" data-name="Path 30403" d="M45.794,113.376l-2.1.526a2.162,2.162,0,0,1-.523.065h0a2.144,2.144,0,0,1-1.526-.632,2.169,2.169,0,0,1-.568-2.05l.526-2.1A7.731,7.731,0,0,1,44.147,100H32.25v15.844H49.008v-1.884c-.084,0-.169,0-.254,0a7.773,7.773,0,0,1-2.96-.59Zm-7.2-.679H35.043a.762.762,0,1,1,0-1.523H38.6a.762.762,0,1,1,0,1.523Zm0-3.047H35.043a.762.762,0,1,1,0-1.523H38.6a.762.762,0,1,1,0,1.523Zm0-3.047H35.043a.762.762,0,1,1,0-1.523H38.6a.762.762,0,1,1,0,1.523Zm1.016-3.047h-4.57a.762.762,0,1,1,0-1.523h4.57a.762.762,0,1,1,0,1.523Z" transform="translate(0 -94.923)" fill="#fff"/>
  </g>
</svg>
