<svg xmlns="http://www.w3.org/2000/svg" width="21.658" height="24.766" viewBox="0 0 21.658 24.766">
  <g id="offer" transform="translate(-32.135 0.001)">
    <path id="Path_30396" data-name="Path 30396" d="M309.79,36.983a20.011,20.011,0,0,1,2.422,1.419,16.273,16.273,0,0,0-5.858-6.17.726.726,0,0,0-1.077.649,3.392,3.392,0,0,0,.71,1.555A14.824,14.824,0,0,0,309.79,36.983Z" transform="translate(-259.929 -30.586)" fill="#fff"/>
    <path id="Path_30397" data-name="Path 30397" d="M239.7,192.408a.829.829,0,1,0-.829-.829A.83.83,0,0,0,239.7,192.408Z" transform="translate(-196.732 -181.528)" fill="#fff"/>
    <path id="Path_30398" data-name="Path 30398" d="M147.96,254.933a5.492,5.492,0,1,0,5.492,5.492A5.5,5.5,0,0,0,147.96,254.933Zm2.711,3.807-2.2,2.2a.726.726,0,0,1-1.026-1.026l2.2-2.2a.726.726,0,0,1,1.026,1.026Z" transform="translate(-104.996 -242.602)" fill="#fff"/>
    <path id="Path_30399" data-name="Path 30399" d="M45.031,4.875C43.719,3.563,43.689.767,43.689.724A.726.726,0,0,0,42.7.048C37.955,1.874,32.135,6.891,32.135,13.937A10.841,10.841,0,0,0,42.964,24.766a6.96,6.96,0,0,1-5.393-11.31l-.56-.56a.726.726,0,0,1,1.026-1.026l.56.56a6.932,6.932,0,0,1,2.381-1.26,2.279,2.279,0,1,1,3.971,0,6.933,6.933,0,0,1,2.381,1.26l.56-.56A.726.726,0,0,1,48.917,12.9l-.56.56a6.96,6.96,0,0,1-5.393,11.31A10.841,10.841,0,0,0,53.793,13.937C53.793,8.007,48.752,8.6,45.031,4.875Z" transform="translate(0 0)" fill="#fff"/>
  </g>
</svg>
