<svg xmlns="http://www.w3.org/2000/svg" width="29.249" height="25.757" viewBox="0 0 29.249 25.757">
  <g id="phone" transform="translate(0 -0.001)">
    <path id="Path_15380" data-name="Path 15380" d="M193.879,31H187.01a6.011,6.011,0,0,0-.858,11.959V45.6a.858.858,0,0,0,1.466.607l3.183-3.183h3.078a6.01,6.01,0,0,0,0-12.021Zm-6.869,6.869a.858.858,0,1,1,.858-.858A.858.858,0,0,1,187.01,37.869Zm3.434,0a.858.858,0,1,1,.858-.858.858.858,0,0,1-.858.858Zm3.434,0a.858.858,0,1,1,.858-.858.858.858,0,0,1-.858.858Z" transform="translate(-170.64 -30.999)" fill="#fff"/>
    <path id="Path_15381" data-name="Path 15381" d="M19.29,121.808a2.579,2.579,0,0,0,2.576-2.576V115.8a.858.858,0,0,0-.587-.815l-5.14-1.717a.859.859,0,0,0-.748.1l-2.185,1.452a15.113,15.113,0,0,1-6.164-6.164L8.5,106.469a.859.859,0,0,0,.1-.748l-1.717-5.14A.857.857,0,0,0,6.068,100H2.576A2.568,2.568,0,0,0,0,102.564C0,112.456,9.4,121.808,19.29,121.808Z" transform="translate(0 -96.05)" fill="#fff"/>
  </g>
</svg>
