<svg xmlns="http://www.w3.org/2000/svg" width="114.65" height="107.229" viewBox="0 0 114.65 107.229">
  <g id="skills" transform="translate(-185 -1025.5)">
    <path id="Path_249" data-name="Path 249" d="M35.691,0C43.8,0,54.208,10.715,63.3,26.428s13.453,32.594,8.761,36.426a60.1,60.1,0,0,1-36.371,12.51c-18.185,0-32.955-8.678-36.371-12.51S-2.393,42.142,6.7,26.428,27.584,0,35.691,0Z" transform="translate(247.346 1027.135) rotate(45)" fill="#ff4934" opacity="0.14"/>
    <g id="development" transform="translate(184 1043)">
      <path id="Path_31097" data-name="Path 31097" d="M16.032,24.258a1.258,1.258,0,0,1-2.516,0V23H11v1.258a3.774,3.774,0,1,0,7.548,0V23H16.032Z" transform="translate(2.581 5.677)" fill="#0d0d0d"/>
      <path id="Path_31098" data-name="Path 31098" d="M37.806,24.613A8.806,8.806,0,1,0,29,15.806,8.817,8.817,0,0,0,37.806,24.613Zm0-15.1a6.29,6.29,0,1,1-6.29,6.29A6.3,6.3,0,0,1,37.806,9.516Z" transform="translate(7.226 1.548)" fill="#0d0d0d"/>
      <path id="Path_31099" data-name="Path 31099" d="M76.484,31.194h3.529L71.452,17.5l-8.561,13.7h3.529v45.29H61.387V46.29h3.529l-8.561-13.7-8.561,13.7h3.529V76.484H46.29v-15.1h3.529l-8.561-13.7L35.812,56.4a16.687,16.687,0,0,0-7.134-5.909V45.884l1.415-.566A17.674,17.674,0,0,0,41.056,31.506a2.527,2.527,0,0,1,.2.946V33.71h6.29l1.258-.034V32.418a2.466,2.466,0,0,1,4.243-1.708l.889.867,4.436-4.437.866-.913-.889-.889A2.464,2.464,0,0,1,60.1,21.129h1.291v-6.29l-.033-1.258H60.1a2.466,2.466,0,0,1-1.71-4.243l.867-.889L54.817,4.012,53.9,3.146l-.889.889a2.465,2.465,0,0,1-4.207-1.778V1h-6.29l-1.258.034V2.292A2.466,2.466,0,0,1,37.015,4l-.889-.868L31.689,7.568l-.866.913.889.891a2.458,2.458,0,0,1,.533,2.688,2.418,2.418,0,0,1-.715.93A17.778,17.778,0,0,0,23.5,11.065H6.645A5.639,5.639,0,0,0,3.525,21.4c0,.031-.009.062-.009.093A4.669,4.669,0,0,0,8.18,26.161h.369v.5a13.692,13.692,0,0,1-2.3,7.613l-.572.858L8.548,38v6.02a4.787,4.787,0,0,0,4.782,4.782,4.912,4.912,0,0,0,.677-.048l2.09-.3v6.752A21.8,21.8,0,0,0,8.548,71.63V79H79V76.484H76.484Zm-9.052-2.516,4.02-6.432,4.02,6.432h-1.5V76.484H68.935V28.677Zm-15.1,15.1,4.02-6.432,4.02,6.432h-1.5v32.71H53.839V43.774ZM41.258,52.438l4.02,6.432h-1.5V76.484H38.742V58.871h-1.5ZM28.677,73.968h7.548v2.516H28.677ZM34.57,13.026a4.959,4.959,0,0,0-.321-4.459l1.994-1.994a4.979,4.979,0,0,0,7.375-3.057h2.823A4.983,4.983,0,0,0,53.82,6.572l1.994,1.994a4.98,4.98,0,0,0,3.057,7.375v2.823a4.981,4.981,0,0,0-3.055,7.377l-2,2a4.979,4.979,0,0,0-7.375,3.057H43.623a4.983,4.983,0,0,0-7.379-3.056l-1.994-1.994a4.98,4.98,0,0,0-3.057-7.375V15.946a4.97,4.97,0,0,0,3.377-2.92ZM6.032,21.5a2.141,2.141,0,0,1,1.794-2.119l4.7-.784-.413-2.482-4.7.784a4.63,4.63,0,0,0-3.036,1.922,3.1,3.1,0,0,1-.862-2.11,3.133,3.133,0,0,1,3.129-3.129H23.5a15.262,15.262,0,0,1,5.181.932v5.358l.033,1.258h1.258a2.465,2.465,0,0,1,1.721,4.231l-.889.889L35.247,30.7l.915.866.889-.889A2.43,2.43,0,0,1,38.7,29.98a15.171,15.171,0,0,1-9.537,13l-.483.192V39.519l2.188-1.095a5.145,5.145,0,0,0-2.3-9.747H28.55a6.3,6.3,0,0,0-6.163-5.032H8.18A2.15,2.15,0,0,1,6.032,21.5ZM18.613,48.1l1.167-.167a6.628,6.628,0,0,0,4.991-3.6L22.52,43.211a4.105,4.105,0,0,1-3.1,2.231l-5.771.824a2.3,2.3,0,0,1-2.589-2.241v-.25h2.516a5.037,5.037,0,0,0,5.032-5.032H16.1a2.519,2.519,0,0,1-2.516,2.516H11.065v-4.3L8.886,34.784a16.192,16.192,0,0,0,2.179-8.126v-.5H22.387a3.779,3.779,0,0,1,3.774,3.774v1.258h2.4a2.629,2.629,0,0,1,1.176,4.981l-3.579,1.79V50.283a21.527,21.527,0,0,0-7.548,3.036ZM11.065,71.632A19.352,19.352,0,0,1,27.277,52.617a14.2,14.2,0,0,1,7.054,6.157L32.7,61.387h3.529V71.452H28.677V61.387H26.161v15.1h-15.1Z" transform="translate(0)" fill="#0d0d0d"/>
    </g>
  </g>
</svg>
