<svg xmlns="http://www.w3.org/2000/svg" width="28" height="28" viewBox="0 0 28 28">
  <g id="support" transform="translate(0 -0.001)">
    <g id="Group_10051" data-name="Group 10051" transform="translate(0 8.04)">
      <g id="Group_10050" data-name="Group 10050">
        <path id="Path_30432" data-name="Path 30432" d="M13.336,158.883l-.6,2.18A10.573,10.573,0,0,1,5.9,154.221l2.18-.6V147H0v4.037a15.924,15.924,0,0,0,15.924,15.924h4.037v-8.075Z" transform="translate(0 -146.996)" fill="#0d0d0d"/>
      </g>
    </g>
    <g id="Group_10053" data-name="Group 10053" transform="translate(4.101 0.001)">
      <g id="Group_10052" data-name="Group 10052">
        <path id="Path_30433" data-name="Path 30433" d="M94.78,4.1a14,14,0,0,0-19.8,0l1.16,1.16A12.359,12.359,0,0,1,93.62,22.74l1.16,1.16a14,14,0,0,0,0-19.8Z" transform="translate(-74.981 -0.001)" fill="#0d0d0d"/>
      </g>
    </g>
    <g id="Group_10055" data-name="Group 10055" transform="translate(11.065 7.495)">
      <g id="Group_10054" data-name="Group 10054">
        <path id="Path_30434" data-name="Path 30434" d="M203.98,143.6v-1.643h3.284v-4.925h-4.925v1.641h3.285v1.643H202.34v4.925h4.925V143.6Z" transform="translate(-202.339 -137.028)" fill="#0d0d0d"/>
      </g>
    </g>
    <g id="Group_10057" data-name="Group 10057" transform="translate(17.634 7.494)">
      <g id="Group_10056" data-name="Group 10056">
        <path id="Path_30435" data-name="Path 30435" d="M325.736,137.016V140.3h-1.643v-3.285h-1.641v4.925h3.284v3.285h1.641v-8.21Z" transform="translate(-322.452 -137.016)" fill="#0d0d0d"/>
      </g>
    </g>
  </g>
</svg>
